<?xml version="1.0" encoding="UTF-8" ?>
<!DOCTYPE svg PUBLIC "-//W3C//DTD SVG 1.1//EN" "http://www.w3.org/Graphics/SVG/1.1/DTD/svg11.dtd">
<svg width="512pt" height="512pt" viewBox="0 0 512 512" version="1.1" xmlns="http://www.w3.org/2000/svg">
<g id="#ffffffff">
</g>
<g id="#000000ff">
<path fill="#000000" opacity="1.00" d=" M 457.14 50.04 C 456.28 42.41 466.73 37.42 472.14 42.83 C 476.41 47.57 476.91 54.40 479.32 60.11 C 485.30 54.48 490.83 48.38 496.88 42.84 C 500.72 39.25 507.52 40.20 510.30 44.62 C 512.82 48.10 512.20 53.18 509.20 56.17 C 503.67 61.91 497.90 67.41 492.36 73.15 C 497.36 74.99 502.63 76.19 507.43 78.55 C 510.10 79.76 511.11 82.68 512.00 85.25 L 512.00 85.92 C 512.01 90.81 508.11 95.29 503.13 95.42 C 497.91 94.95 493.15 92.54 488.18 91.09 C 490.75 102.39 486.14 114.91 476.68 121.66 C 444.77 149.75 413.07 178.11 381.18 206.22 C 369.88 200.87 357.63 197.72 345.18 196.66 C 349.78 188.46 353.26 179.67 355.51 170.55 C 360.63 164.02 366.43 158.01 371.95 151.80 C 375.91 155.93 380.07 159.86 384.05 163.96 C 386.07 165.92 388.23 168.15 391.15 168.55 C 395.67 169.56 400.41 166.35 401.48 161.92 C 402.58 158.53 400.96 154.86 398.55 152.45 C 393.70 147.66 388.90 142.82 384.08 138.00 C 390.12 131.29 396.06 124.50 402.05 117.75 C 406.14 121.69 409.96 125.91 414.19 129.70 C 417.35 132.68 422.74 132.79 426.04 129.96 C 429.93 126.94 430.46 120.61 427.07 117.01 C 422.96 112.53 418.53 108.35 414.24 104.03 C 418.80 98.87 423.31 93.67 427.97 88.60 C 431.98 92.73 436.13 96.72 440.17 100.81 C 442.43 103.14 445.58 105.01 448.95 104.43 C 452.76 103.99 456.01 100.89 456.65 97.11 C 457.40 93.89 455.87 90.63 453.62 88.38 C 449.21 83.87 444.69 79.45 440.24 74.99 C 446.43 69.83 454.63 67.33 462.65 68.21 C 460.98 62.10 458.12 56.30 457.14 50.04 Z" />
<path fill="#000000" opacity="1.00" d=" M 121.55 60.63 C 124.87 58.17 129.26 58.91 133.08 59.26 C 149.04 60.93 163.82 70.21 172.66 83.53 C 182.02 69.41 198.07 59.91 215.03 58.99 C 218.40 58.67 222.36 58.78 224.79 61.51 C 228.32 64.69 228.53 70.82 225.08 74.14 C 222.15 77.65 217.17 77.07 213.09 77.71 C 195.40 79.95 181.15 96.80 182.01 114.65 C 211.94 118.64 236.57 146.27 236.71 176.55 C 226.10 187.41 216.75 199.93 211.60 214.34 C 206.07 229.02 204.93 245.12 207.23 260.59 C 203.04 260.59 198.86 260.62 194.67 260.58 C 185.74 238.89 166.04 221.85 143.07 216.81 C 136.55 215.14 129.72 214.69 123.01 214.90 C 119.50 209.18 115.53 203.75 111.88 198.13 C 107.25 184.59 107.49 169.49 112.38 156.05 C 120.08 134.13 140.55 117.60 163.56 114.48 C 163.69 98.50 152.71 83.06 137.18 78.80 C 132.00 76.65 125.61 78.52 120.98 74.94 C 116.52 71.45 116.78 63.71 121.55 60.63 Z" />
<path fill="#000000" opacity="1.00" d=" M 269.56 173.68 C 289.34 159.88 311.43 149.55 334.50 142.60 C 338.00 149.48 339.40 157.51 337.67 165.10 C 335.56 176.95 329.65 187.72 322.90 197.54 C 294.28 201.80 267.74 218.78 252.53 243.47 C 248.87 248.80 246.56 254.87 243.72 260.64 C 237.77 260.48 231.82 260.73 225.87 260.52 C 223.07 246.06 224.39 230.74 230.32 217.21 C 234.18 208.13 239.96 199.93 246.66 192.71 C 253.26 185.22 261.53 179.51 269.56 173.68 Z" />
<path fill="#000000" opacity="1.00" d=" M 41.73 191.61 C 43.67 186.60 46.66 182.12 49.39 177.52 C 58.89 178.20 67.89 182.02 75.50 187.64 C 86.92 195.82 95.78 206.99 103.63 218.52 C 94.56 222.14 85.66 226.65 78.50 233.39 C 69.75 240.62 63.46 250.34 58.79 260.58 C 52.81 260.57 46.84 260.67 40.86 260.54 C 32.11 238.63 31.91 213.20 41.73 191.61 Z" />
<path fill="#000000" opacity="1.00" d=" M 435.94 207.05 C 448.86 204.13 462.53 206.08 474.61 211.30 C 470.73 229.04 463.17 245.93 452.28 260.47 C 445.44 260.76 438.57 260.51 431.72 260.60 C 426.02 246.36 417.19 233.49 406.04 222.97 C 414.19 214.90 424.75 209.41 435.94 207.05 Z" />
<path fill="#000000" opacity="1.00" d=" M 298.21 224.98 C 316.07 215.18 337.68 212.37 357.43 217.40 C 375.15 221.66 391.33 232.09 402.55 246.44 C 406.36 250.60 408.64 255.83 411.71 260.51 C 362.48 260.72 313.24 260.51 264.00 260.62 C 271.39 245.61 283.49 232.93 298.21 224.98 Z" />
<path fill="#000000" opacity="1.00" d=" M 115.99 234.38 C 138.32 229.28 163.07 240.67 174.20 260.58 C 144.80 260.61 115.40 260.59 86.01 260.59 C 83.78 260.59 81.55 260.74 79.35 260.35 C 87.32 247.19 100.77 237.24 115.99 234.38 Z" />
<path fill="#000000" opacity="1.00" d=" M 0.00 278.95 C 170.15 278.92 340.29 278.96 510.44 278.92 C 504.28 293.56 497.93 308.19 489.82 321.87 C 484.66 331.99 477.80 341.08 471.62 350.57 C 466.49 357.39 461.12 364.04 455.85 370.75 C 450.39 376.67 444.94 382.60 439.48 388.52 C 435.09 392.79 430.50 396.84 426.02 401.00 C 419.10 407.82 411.01 413.28 403.54 419.47 C 396.96 424.34 389.96 428.62 383.23 433.29 C 382.21 433.84 381.29 434.81 380.07 434.81 C 372.05 434.97 364.01 434.68 355.99 434.92 C 350.80 434.92 346.31 439.90 347.12 445.07 C 347.48 449.49 351.56 453.00 355.92 453.10 C 362.08 453.34 368.26 453.05 374.42 453.23 C 374.28 457.42 374.82 461.67 374.00 465.81 C 372.82 469.62 368.82 471.84 364.95 471.53 C 291.67 471.54 218.39 471.55 145.11 471.53 C 141.79 471.66 138.45 470.05 136.94 467.00 C 135.20 462.62 136.29 457.75 136.01 453.17 C 170.99 453.20 205.98 453.16 240.96 453.20 C 244.00 453.13 247.23 453.48 250.07 452.15 C 253.80 450.42 255.85 445.89 254.83 441.94 C 253.99 437.49 249.41 434.58 245.03 434.86 C 207.01 434.83 168.99 434.83 130.97 434.86 C 129.39 435.00 128.17 433.82 126.92 433.08 C 118.60 427.41 109.94 422.21 102.19 415.75 C 96.55 411.08 90.47 406.94 85.23 401.80 C 79.05 395.97 72.55 390.46 66.90 384.10 C 61.47 378.15 55.73 372.47 50.85 366.05 C 45.37 358.87 39.39 352.07 34.64 344.37 C 20.45 324.12 9.41 301.88 0.00 279.07 L 0.00 278.95 Z" />
</g>
</svg>
