<?xml version="1.0" encoding="UTF-8" ?>
<!DOCTYPE svg PUBLIC "-//W3C//DTD SVG 1.1//EN" "http://www.w3.org/Graphics/SVG/1.1/DTD/svg11.dtd">
<svg width="512pt" height="512pt" viewBox="0 0 512 512" version="1.1" xmlns="http://www.w3.org/2000/svg">
<g id="#ffffffff">
</g>
<g id="#000000ff">
<path fill="#000000" opacity="1.00" d=" M 153.92 25.91 C 153.61 20.35 160.85 16.57 165.23 20.01 C 172.31 25.05 179.16 30.43 186.19 35.55 C 194.51 32.81 202.76 29.82 211.11 27.19 C 216.19 25.51 221.63 30.90 219.99 35.99 C 217.28 44.27 214.45 52.53 211.56 60.76 C 216.68 68.16 222.41 75.13 227.54 82.52 C 230.10 86.67 226.90 92.95 222.00 93.14 C 213.10 93.39 204.15 92.81 195.27 93.07 C 190.04 100.13 185.14 107.44 179.95 114.53 C 176.82 118.64 169.46 117.48 167.79 112.58 C 164.96 104.20 162.51 95.69 159.78 87.27 C 151.50 84.81 143.29 82.14 135.04 79.58 C 129.72 78.07 128.31 70.03 132.94 66.92 C 139.96 61.77 147.22 56.93 154.24 51.76 C 154.09 43.15 153.95 34.52 153.92 25.91 Z" />
<path fill="#000000" opacity="1.00" d=" M 287.40 19.56 C 295.88 17.40 305.13 18.44 312.93 22.39 C 322.37 26.96 329.44 36.00 331.84 46.18 C 334.31 56.13 332.42 67.07 326.74 75.60 C 320.88 84.19 311.28 90.16 300.91 91.28 C 292.15 92.41 282.97 90.26 275.67 85.27 C 267.76 79.99 262.11 71.40 260.43 62.03 C 258.61 52.68 260.59 42.68 265.80 34.71 C 270.75 27.19 278.62 21.62 287.40 19.56 Z" />
<path fill="#000000" opacity="1.00" d=" M 366.66 94.39 C 376.70 69.87 399.00 50.26 425.01 44.55 C 441.43 40.94 459.77 46.35 470.56 59.45 C 475.89 66.76 472.09 78.40 463.46 81.15 C 457.38 83.30 451.56 79.50 446.57 76.46 C 437.46 70.87 425.69 72.84 416.79 77.88 C 410.61 81.00 405.78 86.07 401.31 91.23 C 415.68 94.91 427.76 105.96 433.42 119.58 C 436.33 126.34 437.19 134.06 435.24 141.21 C 432.94 149.34 427.06 156.36 419.60 160.27 C 412.23 164.10 403.36 164.16 395.57 161.59 C 384.51 157.91 375.01 149.96 368.95 140.05 C 367.04 136.69 365.08 133.21 364.66 129.30 C 359.26 132.49 354.75 137.03 350.82 141.88 C 363.97 145.40 374.91 155.08 381.42 166.87 C 385.52 174.89 387.06 184.52 384.15 193.18 C 381.30 201.22 375.32 208.32 367.44 211.77 C 360.65 214.67 352.87 214.53 345.89 212.39 C 330.77 207.57 318.19 195.20 313.47 180.00 C 309.03 183.49 304.80 187.22 301.09 191.50 C 310.03 193.78 317.91 199.15 324.19 205.80 C 330.14 212.59 335.02 220.76 335.87 229.93 C 337.65 244.50 327.45 259.68 313.04 262.96 C 302.14 265.41 290.93 261.23 282.12 254.91 C 273.76 248.62 266.90 239.98 264.07 229.80 C 255.31 236.03 247.14 244.06 243.62 254.47 C 240.65 260.80 239.53 268.33 242.03 274.99 C 243.77 280.12 249.16 283.42 249.54 289.11 C 250.67 296.34 245.15 303.64 238.03 304.97 C 232.58 306.22 227.03 303.55 223.42 299.54 C 214.75 289.63 210.90 276.04 212.00 263.00 C 213.44 243.38 224.46 225.66 238.70 212.58 C 246.15 206.15 254.27 200.34 263.28 196.27 C 264.73 195.44 266.70 194.95 267.16 193.10 C 275.98 171.27 294.75 154.44 316.07 145.11 C 324.69 121.88 344.88 104.94 366.66 94.39 M 391.78 118.86 C 392.63 123.41 394.86 127.60 397.87 131.09 C 400.16 133.73 403.74 134.95 407.17 134.17 C 407.14 125.85 399.78 119.42 391.78 118.86 M 341.11 169.51 C 341.83 173.64 343.80 177.39 346.27 180.74 C 348.63 183.81 352.72 186.09 356.61 184.54 C 356.12 180.45 354.48 176.36 351.25 173.66 C 348.49 171.04 344.68 170.33 341.11 169.51 M 291.52 219.18 C 292.18 222.54 293.40 225.76 295.39 228.56 C 297.59 232.52 302.00 235.59 306.69 234.51 C 307.04 226.22 299.40 219.72 291.52 219.18 Z" />
<path fill="#000000" opacity="1.00" d=" M 206.53 108.72 C 212.86 106.90 220.41 109.84 223.18 115.97 C 235.92 143.85 235.86 177.62 222.03 205.11 C 213.96 221.12 200.94 234.05 186.52 244.43 C 182.01 247.40 176.42 250.41 170.92 248.41 C 162.83 246.44 157.97 236.43 161.73 228.93 C 164.07 224.04 169.09 221.49 173.11 218.20 C 179.59 213.38 185.47 207.73 190.26 201.21 C 204.55 182.61 206.72 156.80 199.46 134.94 C 197.93 130.40 195.46 125.95 195.82 121.01 C 196.34 115.18 200.91 110.17 206.53 108.72 Z" />
<path fill="#000000" opacity="1.00" d=" M 120.44 130.48 C 122.74 129.91 125.26 130.44 127.11 131.94 C 137.92 140.78 148.65 149.72 159.45 158.58 C 161.71 160.35 163.75 162.93 163.30 165.99 C 163.19 168.94 160.78 170.93 158.71 172.70 C 148.21 181.18 137.90 189.89 127.43 198.42 C 124.69 200.90 120.28 200.94 117.51 198.49 C 106.60 189.41 95.55 180.49 84.69 171.36 C 80.97 168.76 80.46 162.98 83.91 159.94 C 93.68 151.64 103.71 143.62 113.54 135.38 C 115.76 133.65 117.78 131.53 120.44 130.48 Z" />
<path fill="#000000" opacity="1.00" d=" M 450.67 179.70 C 453.31 177.73 457.17 178.11 459.59 180.24 C 470.79 189.43 481.99 198.62 493.10 207.92 C 496.47 210.70 496.44 216.28 493.06 219.04 C 481.97 228.34 470.76 237.50 459.59 246.71 C 456.75 249.24 452.24 248.93 449.49 246.43 C 438.78 237.47 427.93 228.66 417.21 219.71 C 414.92 217.91 413.24 214.93 413.99 211.97 C 414.53 209.26 416.83 207.46 418.85 205.81 C 429.53 197.20 439.91 188.20 450.67 179.70 Z" />
<path fill="#000000" opacity="1.00" d=" M 135.77 229.07 C 152.80 246.20 169.92 263.24 186.99 280.32 C 187.72 281.10 188.56 281.93 188.69 283.07 C 194.71 328.63 201.01 374.17 206.98 419.74 C 192.56 425.70 178.13 431.67 163.75 437.75 C 154.51 368.18 145.04 298.64 135.77 229.07 Z" />
<path fill="#000000" opacity="1.00" d=" M 98.81 281.94 C 102.58 273.05 106.12 264.06 110.07 255.24 C 118.83 319.89 127.51 384.56 136.16 449.23 C 121.73 455.18 107.34 461.24 92.92 467.22 C 87.23 424.15 81.24 381.11 75.63 338.04 C 82.99 319.21 91.15 300.66 98.81 281.94 Z" />
<path fill="#000000" opacity="1.00" d=" M 339.52 277.85 C 358.10 275.60 377.31 278.73 394.17 286.86 C 398.08 288.74 401.29 292.46 401.76 296.88 C 402.35 302.61 399.27 308.41 394.38 311.38 C 390.21 314.48 384.50 314.02 379.92 312.15 C 363.36 305.63 344.53 304.27 327.48 309.76 C 315.15 313.48 304.57 321.49 296.10 331.02 C 291.88 336.14 288.99 342.42 283.69 346.59 C 277.15 351.93 265.89 349.41 262.48 341.63 C 259.75 336.95 260.94 331.03 263.56 326.57 C 279.83 300.00 308.54 281.47 339.52 277.85 Z" />
<path fill="#000000" opacity="1.00" d=" M 416.64 288.02 C 416.80 282.92 423.34 279.54 427.56 282.45 C 434.80 287.49 441.67 293.07 448.90 298.09 C 457.37 295.60 465.59 292.29 474.06 289.77 C 478.83 288.43 483.93 293.27 482.74 298.11 C 480.30 306.85 476.64 315.23 474.38 324.01 C 479.69 330.67 484.60 337.63 489.75 344.41 C 492.87 348.42 490.25 355.17 485.14 355.79 C 476.06 356.07 466.96 355.58 457.87 355.62 C 452.83 362.75 447.93 369.99 442.72 376.99 C 439.55 381.48 431.61 380.04 430.24 374.72 C 427.59 366.52 425.06 358.29 422.57 350.04 C 414.10 347.22 405.45 344.93 397.05 341.93 C 392.39 340.19 391.26 333.25 395.06 330.08 C 402.10 324.75 409.55 319.94 416.58 314.60 C 417.24 305.85 416.34 296.86 416.64 288.02 Z" />
<path fill="#000000" opacity="1.00" d=" M 222.19 315.98 C 223.23 316.57 224.11 317.38 224.94 318.25 C 242.50 335.97 260.30 353.45 277.77 371.24 C 283.76 377.21 281.57 388.51 273.78 391.81 C 260.76 397.30 247.75 402.90 234.58 408.02 C 230.48 377.34 226.38 346.65 222.19 315.98 Z" />
<path fill="#000000" opacity="1.00" d=" M 336.48 351.56 C 354.22 347.11 373.72 358.50 379.23 375.77 C 382.57 385.27 381.58 396.19 376.56 404.92 C 370.76 415.71 359.27 423.23 347.02 423.95 C 328.35 425.66 310.22 410.65 308.15 392.08 C 305.36 373.92 318.63 355.37 336.48 351.56 Z" />
<path fill="#000000" opacity="1.00" d=" M 17.30 477.54 C 29.43 448.64 41.31 419.63 53.54 390.78 C 57.43 420.11 61.43 449.43 65.33 478.76 C 53.50 483.53 41.80 488.68 29.93 493.36 C 25.01 495.28 18.97 492.68 16.86 487.88 C 15.15 484.62 15.83 480.75 17.30 477.54 Z" />
</g>
</svg>
