<?xml version="1.0" encoding="UTF-8" ?>
<!DOCTYPE svg PUBLIC "-//W3C//DTD SVG 1.1//EN" "http://www.w3.org/Graphics/SVG/1.1/DTD/svg11.dtd">
<svg width="512pt" height="512pt" viewBox="0 0 512 512" version="1.1" xmlns="http://www.w3.org/2000/svg">
<g id="#ffffffff">
</g>
<g id="#000000ff">
<path fill="#000000" opacity="1.00" d=" M 475.16 14.06 C 478.89 8.07 486.05 4.56 493.06 5.08 C 501.14 5.49 508.49 11.53 510.62 19.32 C 512.97 28.75 509.92 38.61 512.00 48.13 L 512.00 488.48 C 511.84 495.22 507.93 501.78 501.89 504.86 C 495.19 508.49 486.31 507.35 480.73 502.16 C 476.42 498.45 474.32 492.70 474.46 487.08 C 474.46 410.90 474.44 334.72 474.47 258.53 C 467.58 258.36 460.19 259.57 453.82 256.27 C 446.16 252.42 441.94 243.30 443.54 234.94 C 452.83 165.95 462.11 96.95 471.39 27.95 C 471.98 23.20 472.46 18.17 475.16 14.06 Z" />
<path fill="#000000" opacity="1.00" d=" M 0.00 28.29 C 0.38 21.72 6.37 15.85 13.04 16.11 C 19.82 16.11 25.77 22.44 25.58 29.18 C 25.61 52.67 25.63 76.17 25.56 99.67 C 31.83 99.63 38.10 99.68 44.37 99.64 C 44.28 76.42 44.35 53.20 44.33 29.98 C 43.60 21.81 51.85 14.35 59.91 16.37 C 65.44 17.82 70.05 23.07 69.90 28.94 C 70.00 52.52 69.92 76.10 69.94 99.68 C 76.18 99.63 82.42 99.67 88.66 99.65 C 88.76 76.12 88.62 52.58 88.73 29.05 C 88.58 22.07 95.05 15.62 102.08 16.11 C 109.04 16.30 114.84 23.11 114.27 30.00 C 114.29 67.66 114.29 105.33 114.27 142.99 C 114.27 153.51 111.77 164.11 106.31 173.17 C 99.48 184.75 88.47 193.62 75.89 198.28 C 75.91 294.87 75.94 391.47 75.87 488.06 C 76.10 496.75 69.51 504.94 60.98 506.59 C 53.13 508.36 44.46 504.33 40.73 497.21 C 37.85 492.32 38.40 486.46 38.37 481.02 C 38.38 386.76 38.38 292.50 38.37 198.24 C 31.64 195.60 25.16 192.15 19.77 187.27 C 7.48 176.84 0.32 160.97 0.00 144.91 L 0.00 28.29 Z" />
<path fill="#000000" opacity="1.00" d=" M 195.03 61.86 C 221.28 51.33 249.73 46.58 277.97 47.19 C 321.26 48.19 364.12 63.04 398.69 89.12 C 411.21 98.46 422.67 109.21 432.86 121.04 C 431.31 135.72 428.97 150.34 427.14 165.01 C 424.38 184.76 422.01 204.57 419.03 224.28 C 412.74 198.58 399.95 174.47 381.68 155.28 C 361.48 133.86 334.88 118.41 306.13 111.95 C 263.18 101.82 215.85 111.90 181.06 139.14 C 146.01 165.54 123.61 208.07 122.11 251.98 C 119.80 295.26 137.84 338.98 169.65 368.36 C 198.92 396.04 239.77 411.18 280.04 408.73 C 303.53 407.71 326.74 400.82 347.09 389.07 C 382.20 369.03 408.73 334.33 418.26 294.98 C 421.34 283.59 422.34 271.78 422.91 260.04 C 428.36 270.20 437.71 278.31 448.77 281.74 C 449.04 311.48 448.77 341.24 448.90 370.99 C 448.81 372.40 449.08 373.91 448.57 375.28 C 430.65 402.25 406.50 425.07 378.50 441.35 C 341.19 463.29 296.95 473.03 253.86 469.18 C 208.37 465.39 164.41 446.07 130.68 415.35 C 119.90 405.73 110.30 394.86 101.64 383.31 C 101.31 326.32 101.55 269.31 101.52 212.32 C 114.29 203.96 124.97 192.28 131.51 178.45 C 137.16 167.21 139.66 154.60 139.86 142.08 C 139.91 125.98 139.85 109.88 139.89 93.78 C 156.69 80.67 175.09 69.50 195.03 61.86 Z" />
<path fill="#000000" opacity="1.00" d=" M 256.49 134.71 C 283.55 131.19 311.73 136.84 335.23 150.73 C 356.08 162.92 373.41 181.21 384.07 202.91 C 398.94 232.17 401.22 267.43 390.69 298.47 C 382.35 323.07 366.21 344.98 345.02 360.02 C 321.55 377.12 291.88 385.29 262.96 383.06 C 236.30 381.17 210.39 370.29 190.33 352.64 C 173.86 338.32 161.25 319.63 154.20 298.98 C 144.63 271.30 145.31 240.22 156.09 212.98 C 164.13 192.31 177.95 174.00 195.35 160.30 C 212.95 146.50 234.27 137.43 256.49 134.71 Z" />
</g>
</svg>
