<?xml version="1.0" encoding="UTF-8" ?>
<!DOCTYPE svg PUBLIC "-//W3C//DTD SVG 1.1//EN" "http://www.w3.org/Graphics/SVG/1.1/DTD/svg11.dtd">
<svg width="256pt" height="256pt" viewBox="0 0 256 256" version="1.1" xmlns="http://www.w3.org/2000/svg">
<g id="#ffffffff">
</g>
<g id="#000000ff">
<path fill="#000000" opacity="1.00" d=" M 115.46 19.48 C 129.96 9.95 147.66 5.40 164.96 6.78 C 186.55 8.28 207.29 19.19 220.80 36.10 C 226.63 43.18 230.92 51.38 234.17 59.93 C 231.98 60.08 229.79 60.07 227.61 59.89 C 221.83 44.33 210.44 30.97 196.11 22.61 C 179.84 12.97 159.76 10.12 141.41 14.62 C 118.20 20.18 98.35 37.71 90.04 60.10 C 87.93 60.07 85.82 60.06 83.72 60.07 C 89.41 43.53 100.72 28.93 115.46 19.48 Z" />
<path fill="#000000" opacity="1.00" d=" M 149.10 37.13 C 162.51 34.68 176.88 38.00 187.75 46.25 C 199.37 54.74 206.82 68.60 207.64 82.95 C 208.43 94.41 205.00 106.08 198.22 115.34 C 189.54 127.56 174.99 135.26 160.02 135.79 C 146.05 136.46 131.94 130.80 122.28 120.70 C 111.70 109.93 106.53 94.15 108.73 79.20 C 111.32 58.42 128.46 40.61 149.10 37.13 Z" />
<path fill="#000000" opacity="1.00" d=" M 70.74 75.03 C 70.75 70.62 74.41 66.43 78.87 66.17 C 82.56 65.91 86.26 66.11 89.96 66.07 C 90.12 79.45 89.89 92.84 90.07 106.22 C 85.55 105.93 80.81 106.91 76.44 105.40 C 72.60 104.09 70.47 99.95 70.69 96.04 C 70.74 89.04 70.63 82.03 70.74 75.03 Z" />
<path fill="#000000" opacity="1.00" d=" M 227.76 66.12 C 233.06 66.57 239.30 64.52 243.79 68.25 C 246.50 70.26 247.20 73.85 247.13 77.04 C 247.07 83.71 247.21 90.38 247.06 97.04 C 247.10 101.46 243.59 105.55 239.17 106.03 C 235.39 106.36 231.59 106.14 227.81 106.22 C 227.78 92.85 227.88 79.48 227.76 66.12 Z" />
<path fill="#000000" opacity="1.00" d=" M 227.70 112.24 C 229.82 112.20 231.95 112.18 234.08 112.15 C 230.88 121.61 225.72 130.36 219.28 137.97 C 217.85 136.55 216.44 135.12 215.04 133.67 C 220.42 127.29 224.71 120.03 227.70 112.24 Z" />
<path fill="#000000" opacity="1.00" d=" M 65.62 117.56 C 68.58 115.39 72.58 116.80 75.98 116.40 C 78.67 116.57 82.92 115.46 84.04 118.83 C 84.38 123.14 84.14 127.47 84.19 131.80 C 91.25 133.15 97.92 136.04 103.94 139.95 C 106.77 137.12 109.52 134.22 112.43 131.47 C 113.73 130.08 116.14 130.23 117.31 131.71 C 120.60 134.81 123.79 138.04 126.88 141.34 C 126.89 142.01 126.91 143.35 126.92 144.02 C 123.96 147.37 120.70 150.44 117.54 153.60 C 121.52 159.58 124.34 166.31 125.72 173.37 C 129.79 173.40 133.86 173.22 137.92 173.39 C 139.74 173.41 141.17 175.07 141.05 176.87 C 141.09 181.00 141.14 185.14 141.00 189.27 C 140.98 190.71 140.09 192.28 138.53 192.44 C 134.27 192.83 129.97 192.49 125.69 192.59 C 124.40 199.65 121.47 206.32 117.55 212.31 C 120.58 215.59 124.18 218.37 126.81 221.99 C 127.74 225.78 123.28 227.70 121.31 230.27 C 118.89 232.15 116.73 236.75 113.13 234.98 C 109.82 232.24 107.05 228.90 103.89 225.98 C 97.95 229.99 91.22 232.66 84.23 234.15 C 84.10 238.40 84.41 242.68 84.05 246.93 C 83.87 248.85 81.70 249.55 80.05 249.51 C 75.66 249.55 71.25 249.67 66.87 249.32 C 66.43 248.96 65.55 248.22 65.11 247.86 C 64.62 243.25 65.08 238.62 64.77 234.01 C 57.73 232.83 51.11 229.84 45.16 225.96 C 41.75 229.22 38.75 232.93 34.92 235.73 C 33.40 235.20 31.82 234.65 30.78 233.34 C 28.18 230.55 25.25 228.08 22.81 225.16 C 21.36 223.82 22.19 221.58 23.45 220.42 C 26.08 217.64 28.96 215.09 31.50 212.21 C 27.50 206.28 24.74 199.56 23.32 192.56 C 19.26 192.57 15.19 192.73 11.14 192.52 C 9.31 192.63 7.96 190.79 8.03 189.09 C 7.97 185.04 7.98 181.00 8.01 176.96 C 7.87 175.14 9.30 173.23 11.24 173.40 C 15.28 173.21 19.33 173.43 23.37 173.33 C 24.77 166.34 27.45 159.59 31.52 153.72 C 28.66 150.40 25.16 147.67 22.48 144.21 C 20.85 140.92 24.96 138.84 26.72 136.69 C 29.45 134.64 31.22 130.47 35.01 130.49 C 38.96 132.94 41.76 136.85 45.20 139.94 C 51.14 135.98 57.82 133.14 64.85 131.84 C 65.26 127.11 64.04 122.09 65.62 117.56 M 68.24 160.22 C 60.23 162.39 53.63 169.05 51.70 177.13 C 49.37 185.59 52.48 195.12 59.10 200.80 C 66.66 207.47 78.51 208.40 87.02 202.99 C 96.65 197.21 100.84 184.10 96.32 173.81 C 92.03 163.11 79.30 156.89 68.24 160.22 Z" />
<path fill="#000000" opacity="1.00" d=" M 205.18 136.11 C 209.56 135.31 212.09 139.55 214.90 142.07 C 217.75 144.34 218.13 148.85 215.52 151.45 C 212.06 154.99 208.59 158.52 205.00 161.93 C 202.84 164.09 199.04 164.33 196.77 162.21 C 194.81 160.49 192.94 158.66 191.21 156.72 C 189.26 154.64 189.07 151.10 190.95 148.91 C 193.75 145.70 196.95 142.85 199.90 139.77 C 201.45 138.32 202.95 136.47 205.18 136.11 Z" />
<path fill="#000000" opacity="1.00" d=" M 132.54 139.18 C 134.84 138.81 137.28 137.62 139.56 138.66 C 150.86 142.67 163.51 142.92 174.91 139.17 C 179.93 136.93 185.14 140.03 190.05 141.18 C 187.78 143.42 185.15 145.65 184.27 148.86 C 182.80 153.25 184.10 158.34 187.44 161.52 C 191.01 165.08 194.59 169.65 200.15 169.65 C 205.12 170.10 209.13 166.72 212.23 163.27 C 214.71 160.71 217.26 158.21 219.82 155.73 C 232.21 164.61 242.89 177.01 246.46 192.13 C 248.02 198.99 249.01 206.47 246.30 213.17 C 243.53 220.20 238.04 225.76 231.99 230.08 C 220.41 238.27 206.75 242.93 193.01 245.94 C 165.21 251.53 135.89 250.68 108.77 242.15 C 104.42 240.66 100.03 239.14 95.98 236.92 C 98.36 235.87 100.72 234.76 103.05 233.61 C 106.53 236.79 109.63 241.64 114.94 241.46 C 119.89 241.43 122.79 237.05 126.04 234.02 C 129.14 230.98 133.23 227.85 133.02 223.02 C 133.05 217.84 128.30 214.84 125.14 211.47 C 127.39 207.38 129.17 203.06 130.48 198.59 C 135.20 198.43 141.00 199.68 144.54 195.66 C 147.93 192.32 146.96 187.26 147.08 182.99 C 146.96 178.53 147.99 173.10 144.07 169.87 C 140.50 166.21 135.02 167.57 130.47 167.34 C 129.23 162.91 127.46 158.64 125.16 154.65 C 127.36 151.95 130.35 149.90 132.07 146.82 C 133.38 144.46 133.00 141.71 132.54 139.18 Z" />
</g>
</svg>
