<?xml version="1.0" encoding="UTF-8" ?>
<!DOCTYPE svg PUBLIC "-//W3C//DTD SVG 1.1//EN" "http://www.w3.org/Graphics/SVG/1.1/DTD/svg11.dtd">
<svg width="972pt" height="980pt" viewBox="0 0 972 980" version="1.1" xmlns="http://www.w3.org/2000/svg">
<g id="#ffffffff">
</g>
<g id="#020202ff">
<path fill="#020202" opacity="1.00" d=" M 469.49 0.00 L 477.53 0.00 C 487.71 1.62 496.76 10.37 496.78 21.01 C 497.12 49.69 502.46 78.77 515.61 104.45 C 518.57 106.12 522.03 106.52 525.25 107.53 C 551.53 115.00 576.89 125.75 600.49 139.52 C 603.08 140.96 605.50 142.77 608.27 143.89 C 611.13 143.87 613.74 142.44 616.37 141.48 C 640.32 131.57 661.12 115.50 679.83 97.82 C 687.74 90.03 701.50 89.77 709.59 97.41 C 729.72 116.60 749.27 136.41 769.22 155.79 C 775.36 161.63 777.82 171.10 774.89 179.11 C 773.70 182.78 771.35 185.93 768.59 188.58 C 748.54 208.96 732.67 233.69 723.91 260.98 C 723.24 262.90 722.84 265.08 724.11 266.86 C 737.74 291.92 748.04 318.80 754.67 346.54 C 754.96 349.51 758.05 350.51 760.27 351.80 C 786.28 365.32 816.00 369.39 844.96 370.35 C 854.97 370.22 864.52 377.81 866.39 387.69 C 867.37 393.74 867.14 399.89 867.20 406.00 C 867.32 429.02 867.57 452.05 867.70 475.07 C 868.12 486.55 858.17 496.92 846.74 497.31 C 812.22 497.30 776.85 505.59 747.95 524.94 C 744.40 533.51 741.76 542.48 737.92 550.97 C 733.41 561.68 728.18 572.07 722.75 582.35 C 693.55 558.23 664.81 533.56 635.79 509.21 C 633.68 507.46 631.53 505.74 629.60 503.80 C 629.68 502.63 629.98 501.51 630.49 500.45 C 648.18 457.41 650.51 408.33 637.38 363.73 C 627.16 328.35 607.08 295.95 580.29 270.72 C 552.48 244.50 517.35 226.07 479.87 218.43 C 449.75 212.27 418.24 212.80 388.36 220.09 C 357.17 227.64 327.84 242.63 303.39 263.41 C 261.46 298.73 234.32 351.17 230.44 405.92 C 227.07 446.86 236.28 488.76 256.56 524.50 C 274.84 556.92 301.95 584.27 334.24 602.79 C 378.53 628.46 432.50 636.71 482.44 625.53 C 487.99 624.51 493.30 622.43 498.87 621.56 C 508.79 633.21 517.93 645.54 527.60 657.42 C 544.07 678.05 560.34 698.84 576.97 719.35 C 565.13 725.25 552.80 730.14 540.24 734.29 C 537.90 735.08 535.46 735.88 533.65 737.65 C 520.80 749.64 512.58 765.72 507.27 782.29 C 500.65 803.22 498.20 825.23 497.59 847.10 C 497.13 858.51 486.36 867.92 475.07 867.53 C 447.70 867.50 420.35 868.25 392.98 868.35 C 381.42 868.64 371.12 858.53 370.75 847.06 C 371.01 808.10 359.78 768.35 335.53 737.45 C 334.52 736.16 333.30 734.98 331.71 734.50 C 321.40 730.97 311.18 727.14 301.28 722.58 C 298.61 721.40 295.99 719.83 293.02 719.60 C 276.89 718.23 260.80 722.47 246.24 729.17 C 227.78 737.60 211.23 749.69 196.05 763.06 C 191.28 767.23 187.14 772.49 181.12 774.93 C 171.77 779.00 160.75 775.19 154.49 767.53 C 135.62 748.73 116.30 730.38 97.48 711.53 C 88.91 702.73 90.15 687.29 99.46 679.47 C 124.52 653.87 143.21 621.23 149.08 585.63 C 149.77 583.13 148.05 580.96 147.05 578.83 C 138.64 563.50 131.70 547.40 125.94 530.90 C 124.88 527.62 121.67 525.88 119.13 523.88 C 100.53 510.48 77.93 504.13 55.53 500.76 C 46.40 499.49 37.23 498.44 28.01 498.32 C 22.54 498.24 16.70 498.09 11.91 495.12 C 5.18 491.26 0.81 483.80 0.70 476.05 C 0.44 455.19 0.47 434.32 0.00 413.47 L 0.00 389.52 C 2.11 379.74 10.66 371.25 21.00 371.22 C 50.17 370.92 79.70 365.29 105.73 351.75 C 109.55 349.65 113.65 347.92 117.04 345.13 C 118.60 341.06 119.27 336.72 120.56 332.56 C 126.71 311.33 134.90 290.67 145.19 271.10 C 145.91 269.57 146.94 267.94 146.18 266.22 C 139.64 241.69 125.34 220.08 109.15 200.85 C 105.05 195.65 100.01 191.27 95.97 186.02 C 91.49 180.11 90.45 171.88 93.13 164.99 C 95.26 159.03 100.54 155.17 104.63 150.63 C 120.97 133.96 137.43 117.42 153.58 100.58 C 157.00 96.87 161.20 93.64 166.19 92.46 C 173.46 90.48 181.65 92.75 187.02 97.99 C 207.62 118.49 232.62 134.92 260.36 143.89 C 262.51 145.02 264.53 143.39 266.35 142.39 C 292.71 126.28 321.46 114.17 351.28 106.13 C 354.48 104.16 354.99 99.71 356.68 96.54 C 364.55 76.98 368.09 55.93 369.51 34.97 C 370.10 27.49 368.90 19.41 372.66 12.56 C 376.35 5.50 384.02 0.95 391.96 0.82 C 417.80 0.48 443.65 0.41 469.49 0.00 Z" />
<path fill="#020202" opacity="1.00" d=" M 385.04 262.25 C 395.95 258.56 407.56 257.68 418.98 257.10 C 425.87 256.56 432.80 256.68 439.69 257.18 C 460.82 257.95 481.87 261.12 502.32 266.50 C 516.65 270.29 530.92 275.32 543.02 284.09 C 560.07 296.19 573.76 312.50 584.72 330.18 C 595.46 347.90 603.95 367.40 606.48 388.11 C 610.79 421.95 610.43 456.12 612.09 490.13 C 612.19 497.83 613.83 505.55 617.73 512.25 C 626.23 527.48 639.39 539.35 652.77 550.23 C 716.18 606.03 779.32 662.21 839.60 721.39 C 871.34 749.98 902.81 778.85 934.52 807.48 C 938.94 811.71 943.78 815.55 947.71 820.28 C 961.77 835.69 969.99 855.92 972.00 876.59 L 972.00 892.40 C 970.03 909.69 964.06 926.64 953.69 940.70 C 937.33 963.56 910.40 978.07 882.44 980.00 L 868.65 980.00 C 857.63 978.49 846.63 976.18 836.50 971.44 C 822.71 965.26 810.76 955.45 801.22 943.79 C 728.69 857.99 656.21 772.15 583.68 686.35 C 570.43 670.92 557.02 655.62 544.08 639.93 C 534.41 628.82 523.48 618.16 509.91 612.02 C 501.07 607.89 491.13 608.75 481.68 607.83 C 462.33 607.17 442.99 606.34 423.67 605.18 C 403.85 603.46 383.53 602.51 364.76 595.28 C 346.62 588.45 329.72 578.47 314.65 566.31 C 301.58 555.71 289.99 543.05 281.81 528.28 C 277.52 520.55 274.71 512.13 272.19 503.70 C 265.86 481.88 262.62 459.24 261.54 436.58 C 260.89 417.21 261.49 397.52 266.95 378.79 C 269.40 380.75 271.64 382.94 273.84 385.17 C 312.50 423.65 351.23 462.06 389.72 500.71 C 419.10 495.68 448.29 489.47 477.66 484.29 C 481.04 480.60 485.31 477.58 488.03 473.37 C 493.91 445.20 499.38 416.94 505.13 388.74 C 505.87 387.04 504.67 385.60 503.56 384.45 C 492.28 373.06 481.35 361.32 469.99 350.01 C 455.97 335.71 442.19 321.17 428.05 306.98 C 416.29 294.74 404.51 282.51 392.53 270.47 C 389.97 267.79 387.14 265.33 385.04 262.25 M 885.33 831.10 C 876.99 833.24 868.60 835.14 860.26 837.23 C 857.28 837.81 855.45 840.41 853.31 842.29 C 847.10 848.37 840.40 854.02 834.66 860.50 C 831.80 868.92 829.69 877.58 827.01 886.06 C 826.50 888.21 825.33 890.42 826.02 892.67 C 827.91 901.31 830.31 909.83 832.21 918.48 C 832.68 920.27 832.94 922.31 834.39 923.66 C 840.88 930.49 847.33 937.36 853.94 944.08 C 856.40 946.87 860.42 946.94 863.71 948.18 C 871.48 950.23 879.06 953.24 886.97 954.63 C 896.65 952.43 906.28 949.96 915.95 947.67 C 917.90 947.39 919.18 945.81 920.52 944.53 C 927.21 937.83 934.62 931.81 940.94 924.78 C 943.43 918.12 944.94 911.12 947.11 904.35 C 948.27 899.75 950.87 895.09 949.31 890.25 C 946.87 881.08 945.03 871.73 942.36 862.64 C 936.92 856.44 930.94 850.71 925.43 844.56 C 923.16 842.46 921.37 839.47 918.21 838.65 C 909.13 835.98 900.06 833.23 890.95 830.65 C 889.07 830.04 887.15 830.67 885.33 831.10 Z" />
</g>
</svg>
