<?xml version="1.0" encoding="UTF-8" ?>
<!DOCTYPE svg PUBLIC "-//W3C//DTD SVG 1.1//EN" "http://www.w3.org/Graphics/SVG/1.1/DTD/svg11.dtd">
<svg width="512pt" height="512pt" viewBox="0 0 512 512" version="1.1" xmlns="http://www.w3.org/2000/svg">
<g id="#ffffffff">
</g>
<g id="#000000ff">
<path fill="#000000" opacity="1.00" d=" M 67.83 105.72 C 76.07 100.14 86.36 99.13 96.06 99.09 C 175.04 99.08 254.02 99.09 333.00 99.09 C 339.50 99.03 346.43 100.14 351.60 104.39 C 357.45 109.09 360.08 116.72 360.23 124.04 C 360.46 136.32 360.20 148.62 360.34 160.90 C 360.33 162.51 361.14 163.93 361.74 165.37 C 373.13 166.25 384.58 165.32 395.99 165.88 C 407.17 166.79 417.69 172.47 425.43 180.46 C 430.17 185.24 432.82 191.52 435.74 197.46 C 441.52 208.97 447.08 220.58 452.89 232.07 C 455.61 237.45 459.76 242.21 465.20 244.93 C 474.56 249.62 484.97 251.42 494.92 254.43 C 500.26 256.09 504.64 260.12 507.03 265.14 C 511.32 274.34 511.48 284.72 512.00 294.67 L 512.00 346.09 C 511.42 354.13 507.28 361.96 500.42 366.34 C 495.65 369.68 489.72 370.73 484.00 370.63 C 474.70 370.54 465.40 370.82 456.12 370.47 C 455.62 364.99 455.58 359.43 454.15 354.08 C 450.40 338.55 440.03 324.72 426.03 316.98 C 412.31 309.01 395.26 307.21 380.13 311.89 C 365.12 316.38 352.26 327.29 345.10 341.19 C 340.27 350.15 338.71 360.33 338.29 370.37 C 336.19 370.52 334.08 370.64 331.98 370.64 C 298.98 370.62 265.98 370.64 232.98 370.63 C 228.26 370.61 223.53 370.81 218.82 370.32 C 218.77 357.07 215.13 343.66 207.03 333.03 C 196.83 319.17 180.25 310.17 163.02 309.44 C 149.76 308.71 136.28 312.66 125.59 320.56 C 111.39 330.74 102.19 347.61 101.54 365.09 C 101.41 366.64 101.38 368.26 100.69 369.70 C 98.74 370.98 96.25 370.53 94.04 370.66 C 88.46 370.50 82.79 371.03 77.30 369.83 C 66.25 367.34 57.80 356.94 57.48 345.64 C 57.28 327.76 57.47 309.88 57.39 292.00 C 57.42 289.35 57.24 286.31 59.23 284.24 C 61.70 281.60 65.58 281.23 68.99 281.18 C 98.33 281.15 127.67 281.24 157.01 281.14 C 168.14 281.31 178.48 272.32 179.64 261.21 C 180.12 253.94 180.63 245.94 176.52 239.52 C 172.31 232.48 164.20 228.28 156.05 228.48 C 126.36 228.43 96.66 228.47 66.97 228.47 C 63.72 228.51 60.11 227.60 58.09 224.89 C 56.86 221.15 57.40 217.06 57.54 213.20 C 57.65 209.94 60.78 207.42 63.97 207.66 C 109.17 207.53 154.39 207.70 199.60 207.57 C 210.75 207.53 221.00 198.28 221.84 187.10 C 222.28 180.29 222.64 172.93 219.16 166.78 C 215.07 159.24 206.56 154.63 198.04 154.95 C 156.36 154.93 114.68 154.94 73.00 154.94 C 69.64 154.90 66.27 155.10 62.92 154.78 C 59.67 154.51 57.42 151.18 57.45 148.08 C 57.36 140.19 57.33 132.28 57.48 124.39 C 57.59 116.93 61.62 109.81 67.83 105.72 M 360.38 186.14 C 360.20 204.75 360.39 223.36 360.29 241.97 C 360.26 244.07 360.38 246.18 360.64 248.27 C 362.01 248.83 363.36 249.64 364.91 249.53 C 388.63 249.52 412.36 249.55 436.09 249.51 C 437.67 249.62 439.09 248.95 440.40 248.12 C 432.34 233.67 425.65 218.50 418.01 203.82 C 413.45 195.29 405.21 189.22 396.31 185.79 C 386.94 182.20 376.75 183.97 366.98 183.52 C 364.76 183.72 360.42 182.86 360.38 186.14 Z" />
<path fill="#000000" opacity="1.00" d=" M 40.54 166.49 C 93.02 166.22 145.52 166.42 198.01 166.39 C 203.08 166.15 208.20 169.21 209.87 174.09 C 210.88 178.11 210.88 182.35 210.32 186.43 C 209.70 190.97 206.03 194.91 201.52 195.77 C 198.73 196.38 195.86 196.17 193.03 196.19 C 142.67 196.17 92.30 196.21 41.94 196.17 C 36.74 196.35 31.48 193.00 30.13 187.86 C 29.29 183.65 29.25 179.23 30.09 175.02 C 31.18 170.25 35.68 166.69 40.54 166.49 Z" />
<path fill="#000000" opacity="1.00" d=" M 4.51 242.49 C 7.20 240.33 10.74 239.92 14.07 239.93 C 61.39 239.99 108.72 239.88 156.04 239.99 C 161.19 239.82 166.52 243.01 167.86 248.16 C 168.77 252.62 168.82 257.34 167.77 261.78 C 166.21 266.76 161.07 269.85 155.98 269.69 C 108.65 269.79 61.33 269.68 14.00 269.74 C 10.76 269.72 7.27 269.36 4.62 267.29 C 1.74 265.28 0.49 261.80 0.00 258.45 L 0.00 251.39 C 0.45 248.04 1.62 244.51 4.51 242.49 Z" />
<path fill="#000000" opacity="1.00" d=" M 152.42 323.69 C 164.68 321.62 177.77 324.78 187.53 332.54 C 195.39 338.57 201.13 347.33 203.49 356.97 C 206.31 368.19 204.66 380.51 198.75 390.49 C 191.81 402.53 178.97 411.07 165.09 412.43 C 155.37 413.64 145.30 411.41 136.91 406.37 C 125.32 399.47 117.11 387.08 115.57 373.64 C 114.18 363.81 116.39 353.57 121.42 345.05 C 127.94 333.83 139.64 325.88 152.42 323.69 M 153.39 349.57 C 145.78 352.18 140.33 359.91 140.51 367.97 C 140.38 376.41 146.42 384.43 154.56 386.63 C 161.69 388.79 169.93 386.37 174.76 380.70 C 179.62 375.18 180.85 366.84 177.89 360.12 C 174.13 350.90 162.69 345.98 153.39 349.57 Z" />
<path fill="#000000" opacity="1.00" d=" M 395.02 323.13 C 405.77 322.58 416.72 326.01 425.09 332.82 C 434.97 340.49 441.27 352.52 441.97 365.01 C 442.69 375.85 439.37 387.00 432.56 395.50 C 425.07 405.24 413.36 411.67 401.10 412.55 C 391.59 413.51 381.83 411.13 373.70 406.13 C 362.44 399.17 354.39 387.08 352.81 373.89 C 351.36 363.91 353.57 353.47 358.76 344.84 C 366.21 332.15 380.32 323.74 395.02 323.13 M 392.03 349.10 C 384.10 351.24 377.96 358.73 377.73 366.99 C 377.21 375.13 382.46 383.20 390.08 386.05 C 397.05 388.91 405.51 387.09 410.87 381.87 C 416.20 376.77 418.10 368.53 415.67 361.60 C 412.67 352.06 401.61 346.25 392.03 349.10 Z" />
</g>
</svg>
