<?xml version="1.0" encoding="UTF-8" ?>
<!DOCTYPE svg PUBLIC "-//W3C//DTD SVG 1.1//EN" "http://www.w3.org/Graphics/SVG/1.1/DTD/svg11.dtd">
<svg width="512pt" height="512pt" viewBox="0 0 512 512" version="1.1" xmlns="http://www.w3.org/2000/svg">
<g id="#ffffffff">
</g>
<g id="#000000ff">
<path fill="#000000" opacity="1.00" d=" M 43.55 16.32 C 181.54 16.35 319.53 16.36 457.52 16.32 C 457.66 30.87 457.31 45.43 457.69 59.97 C 475.54 110.87 493.95 161.61 512.00 212.46 L 512.00 239.09 C 511.14 264.42 492.80 287.74 468.50 294.76 C 468.37 361.74 468.50 428.72 468.43 495.69 C 381.28 495.64 294.13 495.64 206.98 495.69 C 206.95 437.59 207.01 379.48 206.95 321.38 C 177.92 321.35 148.89 321.37 119.86 321.37 C 119.81 379.46 119.86 437.55 119.84 495.65 C 90.80 495.71 61.77 495.58 32.74 495.71 C 32.60 427.29 32.77 358.87 32.65 290.45 C 13.77 280.47 0.68 260.36 0.00 238.90 L 0.00 212.51 C 14.35 162.07 28.81 111.66 43.17 61.23 C 43.53 59.86 43.56 58.44 43.58 57.03 C 43.52 43.46 43.57 29.89 43.55 16.32 M 141.50 60.03 C 134.51 110.86 126.97 161.62 119.89 212.44 C 145.30 212.42 170.71 212.45 196.11 212.42 C 199.68 161.57 203.39 110.73 206.94 59.87 C 185.13 60.03 163.31 59.72 141.50 60.03 M 305.06 59.87 C 308.61 110.73 312.32 161.57 315.89 212.42 C 341.29 212.45 366.70 212.42 392.11 212.44 C 385.02 161.60 377.51 110.83 370.47 59.99 C 348.67 59.77 326.86 60.00 305.06 59.87 M 21.78 234.21 C 22.10 243.77 24.54 253.62 30.81 261.08 C 37.66 269.97 48.78 275.34 59.98 275.45 C 70.71 275.30 81.32 270.36 88.18 262.09 C 94.96 254.51 97.87 244.18 97.91 234.16 C 72.53 234.30 47.15 234.21 21.78 234.21 M 119.90 234.21 C 119.90 246.19 124.46 258.44 133.77 266.26 C 140.74 272.18 149.81 275.69 159.00 275.41 C 169.86 275.03 180.41 269.61 187.09 261.06 C 193.25 253.57 195.89 243.77 195.99 234.20 C 170.63 234.26 145.26 234.23 119.90 234.21 M 217.90 234.23 C 218.14 243.75 220.68 253.50 226.79 260.99 C 232.65 268.53 241.51 273.67 250.96 275.03 C 261.17 276.61 271.83 273.24 279.70 266.66 C 289.35 258.88 293.95 246.36 294.06 234.21 C 268.67 234.25 243.29 234.21 217.90 234.23 M 315.96 234.22 C 316.19 244.03 318.89 254.12 325.41 261.66 C 332.48 270.41 343.68 275.67 354.94 275.41 C 365.89 275.11 376.53 269.61 383.24 260.97 C 389.36 253.49 391.92 243.75 392.10 234.22 C 366.72 234.23 341.34 234.23 315.96 234.22 M 414.10 234.16 C 414.01 246.14 418.56 258.44 427.90 266.23 C 434.47 272.09 443.25 275.28 452.02 275.45 C 463.19 275.34 474.27 270.02 481.11 261.15 C 487.43 253.70 489.88 243.80 490.22 234.21 C 464.85 234.21 439.47 234.31 414.10 234.16 M 250.56 321.40 C 250.58 364.95 250.59 408.51 250.56 452.07 C 308.65 452.11 366.74 452.10 424.83 452.08 C 424.85 408.51 424.87 364.95 424.82 321.39 C 366.74 321.36 308.65 321.34 250.56 321.40 Z" />
</g>
</svg>
